<svg width="323" height="47" viewBox="0 0 323 47" fill="none" xmlns="http://www.w3.org/2000/svg">
<rect width="323" height="47" rx="23.5" fill="#2AD667"/>
<path d="M90.852 29.168C90.096 29.168 89.3913 29.0467 88.738 28.804C88.094 28.552 87.534 28.1973 87.058 27.74C86.582 27.2827 86.2087 26.746 85.938 26.13C85.6767 25.514 85.546 24.8373 85.546 24.1C85.546 23.3627 85.6767 22.686 85.938 22.07C86.2087 21.454 86.582 20.9173 87.058 20.46C87.5433 20.0027 88.108 19.6527 88.752 19.41C89.396 19.158 90.1007 19.032 90.866 19.032C91.7153 19.032 92.4807 19.1813 93.162 19.48C93.8527 19.7693 94.4313 20.1987 94.898 20.768L93.442 22.112C93.106 21.7293 92.7327 21.4447 92.322 21.258C91.9113 21.062 91.4633 20.964 90.978 20.964C90.5207 20.964 90.1007 21.0387 89.718 21.188C89.3353 21.3373 89.004 21.552 88.724 21.832C88.444 22.112 88.2247 22.4433 88.066 22.826C87.9167 23.2087 87.842 23.6333 87.842 24.1C87.842 24.5667 87.9167 24.9913 88.066 25.374C88.2247 25.7567 88.444 26.088 88.724 26.368C89.004 26.648 89.3353 26.8627 89.718 27.012C90.1007 27.1613 90.5207 27.236 90.978 27.236C91.4633 27.236 91.9113 27.1427 92.322 26.956C92.7327 26.76 93.106 26.466 93.442 26.074L94.898 27.418C94.4313 27.9873 93.8527 28.4213 93.162 28.72C92.4807 29.0187 91.7107 29.168 90.852 29.168ZM99.4598 29.112C98.6571 29.112 97.9431 28.944 97.3178 28.608C96.7018 28.272 96.2118 27.8147 95.8478 27.236C95.4931 26.648 95.3158 25.9807 95.3158 25.234C95.3158 24.478 95.4931 23.8107 95.8478 23.232C96.2118 22.644 96.7018 22.1867 97.3178 21.86C97.9431 21.524 98.6571 21.356 99.4598 21.356C100.253 21.356 100.962 21.524 101.588 21.86C102.213 22.1867 102.703 22.6393 103.058 23.218C103.412 23.7967 103.59 24.4687 103.59 25.234C103.59 25.9807 103.412 26.648 103.058 27.236C102.703 27.8147 102.213 28.272 101.588 28.608C100.962 28.944 100.253 29.112 99.4598 29.112ZM99.4598 27.32C99.8238 27.32 100.15 27.236 100.44 27.068C100.729 26.9 100.958 26.662 101.126 26.354C101.294 26.0367 101.378 25.6633 101.378 25.234C101.378 24.7953 101.294 24.422 101.126 24.114C100.958 23.806 100.729 23.568 100.44 23.4C100.15 23.232 99.8238 23.148 99.4598 23.148C99.0958 23.148 98.7691 23.232 98.4798 23.4C98.1905 23.568 97.9571 23.806 97.7798 24.114C97.6118 24.422 97.5278 24.7953 97.5278 25.234C97.5278 25.6633 97.6118 26.0367 97.7798 26.354C97.9571 26.662 98.1905 26.9 98.4798 27.068C98.7691 27.236 99.0958 27.32 99.4598 27.32ZM109.488 21.356C110.085 21.356 110.617 21.4773 111.084 21.72C111.56 21.9533 111.933 22.3173 112.204 22.812C112.474 23.2973 112.61 23.9227 112.61 24.688V29H110.426V25.024C110.426 24.4173 110.29 23.9693 110.02 23.68C109.758 23.3907 109.385 23.246 108.9 23.246C108.554 23.246 108.242 23.3207 107.962 23.47C107.691 23.61 107.476 23.8293 107.318 24.128C107.168 24.4267 107.094 24.8093 107.094 25.276V29H104.91V21.468H106.996V23.554L106.604 22.924C106.874 22.42 107.262 22.0327 107.766 21.762C108.27 21.4913 108.844 21.356 109.488 21.356ZM119.027 21.356C119.625 21.356 120.157 21.4773 120.623 21.72C121.099 21.9533 121.473 22.3173 121.743 22.812C122.014 23.2973 122.149 23.9227 122.149 24.688V29H119.965V25.024C119.965 24.4173 119.83 23.9693 119.559 23.68C119.298 23.3907 118.925 23.246 118.439 23.246C118.094 23.246 117.781 23.3207 117.501 23.47C117.231 23.61 117.016 23.8293 116.857 24.128C116.708 24.4267 116.633 24.8093 116.633 25.276V29H114.449V21.468H116.535V23.554L116.143 22.924C116.414 22.42 116.801 22.0327 117.305 21.762C117.809 21.4913 118.383 21.356 119.027 21.356ZM127.782 29.112C126.923 29.112 126.167 28.944 125.514 28.608C124.87 28.272 124.37 27.8147 124.016 27.236C123.661 26.648 123.484 25.9807 123.484 25.234C123.484 24.478 123.656 23.8107 124.002 23.232C124.356 22.644 124.837 22.1867 125.444 21.86C126.05 21.524 126.736 21.356 127.502 21.356C128.239 21.356 128.902 21.5147 129.49 21.832C130.087 22.14 130.558 22.588 130.904 23.176C131.249 23.7547 131.422 24.45 131.422 25.262C131.422 25.346 131.417 25.444 131.408 25.556C131.398 25.6587 131.389 25.7567 131.38 25.85H125.262V24.576H130.232L129.392 24.954C129.392 24.562 129.312 24.2213 129.154 23.932C128.995 23.6427 128.776 23.4187 128.496 23.26C128.216 23.092 127.889 23.008 127.516 23.008C127.142 23.008 126.811 23.092 126.522 23.26C126.242 23.4187 126.022 23.6473 125.864 23.946C125.705 24.2353 125.626 24.5807 125.626 24.982V25.318C125.626 25.7287 125.714 26.0927 125.892 26.41C126.078 26.718 126.335 26.956 126.662 27.124C126.998 27.2827 127.39 27.362 127.838 27.362C128.239 27.362 128.589 27.3013 128.888 27.18C129.196 27.0587 129.476 26.8767 129.728 26.634L130.89 27.894C130.544 28.286 130.11 28.5893 129.588 28.804C129.065 29.0093 128.463 29.112 127.782 29.112ZM136.376 29.112C135.564 29.112 134.84 28.9487 134.206 28.622C133.571 28.286 133.072 27.824 132.708 27.236C132.353 26.648 132.176 25.9807 132.176 25.234C132.176 24.478 132.353 23.8107 132.708 23.232C133.072 22.644 133.571 22.1867 134.206 21.86C134.84 21.524 135.564 21.356 136.376 21.356C137.169 21.356 137.86 21.524 138.448 21.86C139.036 22.1867 139.47 22.658 139.75 23.274L138.056 24.184C137.86 23.8293 137.612 23.568 137.314 23.4C137.024 23.232 136.707 23.148 136.362 23.148C135.988 23.148 135.652 23.232 135.354 23.4C135.055 23.568 134.817 23.806 134.64 24.114C134.472 24.422 134.388 24.7953 134.388 25.234C134.388 25.6727 134.472 26.046 134.64 26.354C134.817 26.662 135.055 26.9 135.354 27.068C135.652 27.236 135.988 27.32 136.362 27.32C136.707 27.32 137.024 27.2407 137.314 27.082C137.612 26.914 137.86 26.648 138.056 26.284L139.75 27.208C139.47 27.8147 139.036 28.286 138.448 28.622C137.86 28.9487 137.169 29.112 136.376 29.112ZM144.057 29.112C143.17 29.112 142.479 28.888 141.985 28.44C141.49 27.9827 141.243 27.306 141.243 26.41V19.802H143.427V26.382C143.427 26.6993 143.511 26.9467 143.679 27.124C143.847 27.292 144.075 27.376 144.365 27.376C144.71 27.376 145.004 27.2827 145.247 27.096L145.835 28.636C145.611 28.7947 145.34 28.916 145.023 29C144.715 29.0747 144.393 29.112 144.057 29.112ZM140.081 23.316V21.636H145.303V23.316H140.081ZM152.467 29L149.751 21.468H151.809L154.063 27.95H153.083L155.435 21.468H157.283L159.565 27.95H158.585L160.909 21.468H162.841L160.111 29H157.997L155.995 23.442H156.639L154.567 29H152.467ZM163.717 29V21.468H165.901V29H163.717ZM164.809 20.418C164.407 20.418 164.081 20.3013 163.829 20.068C163.577 19.8347 163.451 19.5453 163.451 19.2C163.451 18.8547 163.577 18.5653 163.829 18.332C164.081 18.0987 164.407 17.982 164.809 17.982C165.21 17.982 165.537 18.094 165.789 18.318C166.041 18.5327 166.167 18.8127 166.167 19.158C166.167 19.522 166.041 19.8253 165.789 20.068C165.546 20.3013 165.219 20.418 164.809 20.418ZM170.868 29.112C169.981 29.112 169.29 28.888 168.796 28.44C168.301 27.9827 168.054 27.306 168.054 26.41V19.802H170.238V26.382C170.238 26.6993 170.322 26.9467 170.49 27.124C170.658 27.292 170.886 27.376 171.176 27.376C171.521 27.376 171.815 27.2827 172.058 27.096L172.646 28.636C172.422 28.7947 172.151 28.916 171.834 29C171.526 29.0747 171.204 29.112 170.868 29.112ZM166.892 23.316V21.636H172.114V23.316H166.892ZM178.31 21.356C178.907 21.356 179.439 21.4773 179.906 21.72C180.382 21.9533 180.755 22.3173 181.026 22.812C181.296 23.2973 181.432 23.9227 181.432 24.688V29H179.248V25.024C179.248 24.4173 179.112 23.9693 178.842 23.68C178.58 23.3907 178.207 23.246 177.722 23.246C177.376 23.246 177.064 23.3207 176.784 23.47C176.513 23.61 176.298 23.8293 176.14 24.128C175.99 24.4267 175.916 24.8093 175.916 25.276V29H173.732V18.612H175.916V23.554L175.426 22.924C175.696 22.42 176.084 22.0327 176.588 21.762C177.092 21.4913 177.666 21.356 178.31 21.356ZM190.47 29.168C189.686 29.168 188.935 29.0653 188.216 28.86C187.498 28.6453 186.919 28.37 186.48 28.034L187.25 26.326C187.67 26.6247 188.165 26.872 188.734 27.068C189.313 27.2547 189.896 27.348 190.484 27.348C190.932 27.348 191.292 27.306 191.562 27.222C191.842 27.1287 192.048 27.0027 192.178 26.844C192.309 26.6853 192.374 26.5033 192.374 26.298C192.374 26.0367 192.272 25.8313 192.066 25.682C191.861 25.5233 191.59 25.3973 191.254 25.304C190.918 25.2013 190.545 25.108 190.134 25.024C189.733 24.9307 189.327 24.8187 188.916 24.688C188.515 24.5573 188.146 24.3893 187.81 24.184C187.474 23.9787 187.199 23.708 186.984 23.372C186.779 23.036 186.676 22.6067 186.676 22.084C186.676 21.524 186.826 21.0153 187.124 20.558C187.432 20.0913 187.89 19.7227 188.496 19.452C189.112 19.172 189.882 19.032 190.806 19.032C191.422 19.032 192.029 19.1067 192.626 19.256C193.224 19.396 193.751 19.6107 194.208 19.9L193.508 21.622C193.051 21.3607 192.594 21.1693 192.136 21.048C191.679 20.9173 191.231 20.852 190.792 20.852C190.354 20.852 189.994 20.9033 189.714 21.006C189.434 21.1087 189.234 21.244 189.112 21.412C188.991 21.5707 188.93 21.7573 188.93 21.972C188.93 22.224 189.033 22.4293 189.238 22.588C189.444 22.7373 189.714 22.8587 190.05 22.952C190.386 23.0453 190.755 23.1387 191.156 23.232C191.567 23.3253 191.973 23.4327 192.374 23.554C192.785 23.6753 193.158 23.8387 193.494 24.044C193.83 24.2493 194.101 24.52 194.306 24.856C194.521 25.192 194.628 25.6167 194.628 26.13C194.628 26.6807 194.474 27.1847 194.166 27.642C193.858 28.0993 193.396 28.468 192.78 28.748C192.174 29.028 191.404 29.168 190.47 29.168ZM200.336 29.112C199.701 29.112 199.146 28.972 198.67 28.692C198.194 28.412 197.821 27.9873 197.55 27.418C197.289 26.8393 197.158 26.1113 197.158 25.234C197.158 24.3473 197.284 23.6193 197.536 23.05C197.788 22.4807 198.152 22.056 198.628 21.776C199.104 21.496 199.673 21.356 200.336 21.356C201.045 21.356 201.68 21.5193 202.24 21.846C202.809 22.1633 203.257 22.6113 203.584 23.19C203.92 23.7687 204.088 24.45 204.088 25.234C204.088 26.0273 203.92 26.7133 203.584 27.292C203.257 27.8707 202.809 28.3187 202.24 28.636C201.68 28.9533 201.045 29.112 200.336 29.112ZM195.884 31.716V21.468H197.97V23.008L197.928 25.248L198.068 27.474V31.716H195.884ZM199.958 27.32C200.322 27.32 200.644 27.236 200.924 27.068C201.213 26.9 201.442 26.662 201.61 26.354C201.787 26.0367 201.876 25.6633 201.876 25.234C201.876 24.7953 201.787 24.422 201.61 24.114C201.442 23.806 201.213 23.568 200.924 23.4C200.644 23.232 200.322 23.148 199.958 23.148C199.594 23.148 199.267 23.232 198.978 23.4C198.689 23.568 198.46 23.806 198.292 24.114C198.124 24.422 198.04 24.7953 198.04 25.234C198.04 25.6633 198.124 26.0367 198.292 26.354C198.46 26.662 198.689 26.9 198.978 27.068C199.267 27.236 199.594 27.32 199.958 27.32ZM208.994 29.112C208.191 29.112 207.477 28.944 206.852 28.608C206.236 28.272 205.746 27.8147 205.382 27.236C205.027 26.648 204.85 25.9807 204.85 25.234C204.85 24.478 205.027 23.8107 205.382 23.232C205.746 22.644 206.236 22.1867 206.852 21.86C207.477 21.524 208.191 21.356 208.994 21.356C209.787 21.356 210.497 21.524 211.122 21.86C211.747 22.1867 212.237 22.6393 212.592 23.218C212.947 23.7967 213.124 24.4687 213.124 25.234C213.124 25.9807 212.947 26.648 212.592 27.236C212.237 27.8147 211.747 28.272 211.122 28.608C210.497 28.944 209.787 29.112 208.994 29.112ZM208.994 27.32C209.358 27.32 209.685 27.236 209.974 27.068C210.263 26.9 210.492 26.662 210.66 26.354C210.828 26.0367 210.912 25.6633 210.912 25.234C210.912 24.7953 210.828 24.422 210.66 24.114C210.492 23.806 210.263 23.568 209.974 23.4C209.685 23.232 209.358 23.148 208.994 23.148C208.63 23.148 208.303 23.232 208.014 23.4C207.725 23.568 207.491 23.806 207.314 24.114C207.146 24.422 207.062 24.7953 207.062 25.234C207.062 25.6633 207.146 26.0367 207.314 26.354C207.491 26.662 207.725 26.9 208.014 27.068C208.303 27.236 208.63 27.32 208.994 27.32ZM217.524 29.112C216.637 29.112 215.946 28.888 215.452 28.44C214.957 27.9827 214.71 27.306 214.71 26.41V19.802H216.894V26.382C216.894 26.6993 216.978 26.9467 217.146 27.124C217.314 27.292 217.542 27.376 217.832 27.376C218.177 27.376 218.471 27.2827 218.714 27.096L219.302 28.636C219.078 28.7947 218.807 28.916 218.49 29C218.182 29.0747 217.86 29.112 217.524 29.112ZM213.548 23.316V21.636H218.77V23.316H213.548ZM220.388 29V21.468H222.572V29H220.388ZM221.48 20.418C221.078 20.418 220.752 20.3013 220.5 20.068C220.248 19.8347 220.122 19.5453 220.122 19.2C220.122 18.8547 220.248 18.5653 220.5 18.332C220.752 18.0987 221.078 17.982 221.48 17.982C221.881 17.982 222.208 18.094 222.46 18.318C222.712 18.5327 222.838 18.8127 222.838 19.158C222.838 19.522 222.712 19.8253 222.46 20.068C222.217 20.3013 221.89 20.418 221.48 20.418ZM224.725 29V21.3C224.725 20.4507 224.977 19.774 225.481 19.27C225.985 18.7567 226.703 18.5 227.637 18.5C227.954 18.5 228.257 18.5327 228.547 18.598C228.845 18.6633 229.097 18.766 229.303 18.906L228.729 20.488C228.607 20.404 228.472 20.3387 228.323 20.292C228.173 20.2453 228.015 20.222 227.847 20.222C227.529 20.222 227.282 20.3153 227.105 20.502C226.937 20.6793 226.853 20.95 226.853 21.314V22.014L226.909 22.952V29H224.725ZM223.563 23.316V21.636H228.785V23.316H223.563ZM230.821 31.828C230.429 31.828 230.042 31.7673 229.659 31.646C229.277 31.5247 228.964 31.3567 228.721 31.142L229.519 29.588C229.687 29.7373 229.879 29.854 230.093 29.938C230.317 30.022 230.537 30.064 230.751 30.064C231.059 30.064 231.302 29.9893 231.479 29.84C231.666 29.7 231.834 29.462 231.983 29.126L232.375 28.202L232.543 27.964L235.245 21.468H237.345L233.943 29.462C233.701 30.0687 233.421 30.5447 233.103 30.89C232.795 31.2353 232.45 31.478 232.067 31.618C231.694 31.758 231.279 31.828 230.821 31.828ZM232.109 29.294L228.749 21.468H231.003L233.607 27.768L232.109 29.294Z" fill="black"/>
</svg>
