<svg width="60" height="26" viewBox="0 0 60 26" fill="none" xmlns="http://www.w3.org/2000/svg">
<rect x="60" y="26" width="60" height="26" rx="10" transform="rotate(-180 60 26)" fill="#2AD667"/>
<path d="M42.7071 13.7071C43.0976 13.3166 43.0976 12.6834 42.7071 12.2929L36.3431 5.92894C35.9526 5.53841 35.3195 5.53841 34.9289 5.92894C34.5384 6.31946 34.5384 6.95262 34.9289 7.34315L40.5858 13L34.9289 18.6569C34.5384 19.0474 34.5384 19.6805 34.9289 20.0711C35.3195 20.4616 35.9526 20.4616 36.3431 20.0711L42.7071 13.7071ZM19 14L42 14L42 12L19 12L19 14Z" fill="white"/>
</svg>
