<svg width="323" height="47" viewBox="0 0 323 47" fill="none" xmlns="http://www.w3.org/2000/svg">
<rect width="323" height="47" rx="23.5" fill="#2AD667"/>
<path d="M140.162 29V19.2H142.43V27.152H147.344V29H140.162ZM151.86 29.112C151.058 29.112 150.344 28.944 149.718 28.608C149.102 28.272 148.612 27.8147 148.248 27.236C147.894 26.648 147.716 25.9807 147.716 25.234C147.716 24.478 147.894 23.8107 148.248 23.232C148.612 22.644 149.102 22.1867 149.718 21.86C150.344 21.524 151.058 21.356 151.86 21.356C152.654 21.356 153.363 21.524 153.988 21.86C154.614 22.1867 155.104 22.6393 155.458 23.218C155.813 23.7967 155.99 24.4687 155.99 25.234C155.99 25.9807 155.813 26.648 155.458 27.236C155.104 27.8147 154.614 28.272 153.988 28.608C153.363 28.944 152.654 29.112 151.86 29.112ZM151.86 27.32C152.224 27.32 152.551 27.236 152.84 27.068C153.13 26.9 153.358 26.662 153.526 26.354C153.694 26.0367 153.778 25.6633 153.778 25.234C153.778 24.7953 153.694 24.422 153.526 24.114C153.358 23.806 153.13 23.568 152.84 23.4C152.551 23.232 152.224 23.148 151.86 23.148C151.496 23.148 151.17 23.232 150.88 23.4C150.591 23.568 150.358 23.806 150.18 24.114C150.012 24.422 149.928 24.7953 149.928 25.234C149.928 25.6633 150.012 26.0367 150.18 26.354C150.358 26.662 150.591 26.9 150.88 27.068C151.17 27.236 151.496 27.32 151.86 27.32ZM160.852 31.828C160.143 31.828 159.457 31.7393 158.794 31.562C158.141 31.394 157.595 31.1373 157.156 30.792L158.024 29.224C158.341 29.4853 158.743 29.6907 159.228 29.84C159.723 29.9987 160.208 30.078 160.684 30.078C161.459 30.078 162.019 29.9053 162.364 29.56C162.719 29.2147 162.896 28.7013 162.896 28.02V26.886L163.036 24.996L163.008 23.092V21.468H165.08V27.74C165.08 29.14 164.716 30.1713 163.988 30.834C163.26 31.4967 162.215 31.828 160.852 31.828ZM160.516 28.636C159.816 28.636 159.181 28.4867 158.612 28.188C158.052 27.88 157.599 27.4553 157.254 26.914C156.918 26.3633 156.75 25.724 156.75 24.996C156.75 24.2587 156.918 23.6193 157.254 23.078C157.599 22.5273 158.052 22.1027 158.612 21.804C159.181 21.5053 159.816 21.356 160.516 21.356C161.151 21.356 161.711 21.4867 162.196 21.748C162.681 22 163.059 22.3967 163.33 22.938C163.601 23.47 163.736 24.156 163.736 24.996C163.736 25.8267 163.601 26.5127 163.33 27.054C163.059 27.586 162.681 27.9827 162.196 28.244C161.711 28.5053 161.151 28.636 160.516 28.636ZM160.95 26.844C161.333 26.844 161.673 26.7693 161.972 26.62C162.271 26.4613 162.504 26.242 162.672 25.962C162.84 25.682 162.924 25.36 162.924 24.996C162.924 24.6227 162.84 24.3007 162.672 24.03C162.504 23.75 162.271 23.5353 161.972 23.386C161.673 23.2273 161.333 23.148 160.95 23.148C160.567 23.148 160.227 23.2273 159.928 23.386C159.629 23.5353 159.391 23.75 159.214 24.03C159.046 24.3007 158.962 24.6227 158.962 24.996C158.962 25.36 159.046 25.682 159.214 25.962C159.391 26.242 159.629 26.4613 159.928 26.62C160.227 26.7693 160.567 26.844 160.95 26.844ZM170.952 29V19.2H173.22V29H170.952ZM179.829 21.356C180.427 21.356 180.959 21.4773 181.425 21.72C181.901 21.9533 182.275 22.3173 182.545 22.812C182.816 23.2973 182.951 23.9227 182.951 24.688V29H180.767V25.024C180.767 24.4173 180.632 23.9693 180.361 23.68C180.1 23.3907 179.727 23.246 179.241 23.246C178.896 23.246 178.583 23.3207 178.303 23.47C178.033 23.61 177.818 23.8293 177.659 24.128C177.51 24.4267 177.435 24.8093 177.435 25.276V29H175.251V21.468H177.337V23.554L176.945 22.924C177.216 22.42 177.603 22.0327 178.107 21.762C178.611 21.4913 179.185 21.356 179.829 21.356Z" fill="black"/>
</svg>
