<svg width="203" height="94" viewBox="0 0 203 94" fill="none" xmlns="http://www.w3.org/2000/svg">
<circle cx="176" cy="47" r="27" fill="#2AD667"/>
<path d="M2 30L1 29V8C1 4.13401 4.13399 1 7.99999 1H128C131.866 1 135 4.13401 135 8V50C135 53.866 131.866 57 128 57H21V73H115V65L116 64H134L135 65V86C135 89.866 131.866 93 128 93H7.99999C4.134 93 1 89.866 1 86V44C1 40.134 4.134 37 7.99999 37H115V21H21V29L20 30H2Z" fill="#F4F4F4" stroke="#F4F4F4" stroke-width="2" stroke-linejoin="bevel"/>
<path d="M2 30L1 29V8C1 4.13401 4.13399 1 7.99999 1H128C131.866 1 135 4.13401 135 8V50C135 53.866 131.866 57 128 57H21V73H115V65L116 64H134L135 65V86C135 89.866 131.866 93 128 93H7.99999C4.134 93 1 89.866 1 86V44C1 40.134 4.134 37 7.99999 37H115V21H21V29L20 30H2Z" fill="#F4F4F4" stroke="#F4F4F4" stroke-width="2" stroke-linejoin="bevel"/>
<rect x="120.4" y="1" width="14.6" height="11.6" fill="#F4F4F4" stroke="#F4F4F4" stroke-width="2" stroke-linejoin="bevel"/>
<rect x="1" y="81.3999" width="14.6" height="11.6" fill="#F4F4F4" stroke="#F4F4F4" stroke-width="2" stroke-linejoin="bevel"/>
</svg>
