<svg width="337" height="154" viewBox="0 0 337 154" fill="none" xmlns="http://www.w3.org/2000/svg">
<circle cx="292" cy="77" r="45" fill="#2AD667"/>
<path d="M2 48H1V47V12C1 5.92487 5.92485 1 12 1H212C218.075 1 223 5.92487 223 12V82C223 88.0751 218.075 93 212 93H33V121H191V107V106H192H222H223V107V142C223 148.075 218.075 153 212 153H12C5.92485 153 1 148.075 1 142V72C1 65.9249 5.92485 61 12 61H191V33H33V47V48H32H2Z" fill="#191629" stroke="#191629" stroke-width="2"/>
<path d="M2 48H1V47V12C1 5.92487 5.92485 1 12 1H212C218.075 1 223 5.92487 223 12V82C223 88.0751 218.075 93 212 93H33V121H191V107V106H192H222H223V107V142C223 148.075 218.075 153 212 153H12C5.92485 153 1 148.075 1 142V72C1 65.9249 5.92485 61 12 61H191V33H33V47V48H32H2Z" fill="#191629" stroke="#191629" stroke-width="2"/>
<rect x="200" y="1" width="23" height="18" fill="#191629" stroke="#191629" stroke-width="2"/>
<rect x="1" y="135" width="23" height="18" fill="#191629" stroke="#191629" stroke-width="2"/>
</svg>
